<svg width="187" height="286" viewBox="0 0 187 286" fill="none" xmlns="http://www.w3.org/2000/svg">
<rect x="4" y="4" width="179" height="181" rx="19" stroke="#EDEFF1" stroke-width="8"/>
<path d="M32.0898 259.672V203.558H44.6795C48.8112 203.558 51.8047 204.773 53.6599 207.204C55.5151 209.635 56.4265 213.224 56.3941 217.972V243.289C56.3941 248.961 55.4584 253.105 53.587 255.722C51.7156 258.34 48.6249 259.656 44.3149 259.672H32.0898ZM40.5963 253.012H43.4399C44.0938 253.066 44.7507 252.953 45.3497 252.686C45.9487 252.418 46.4705 252.004 46.8669 251.481C47.5838 250.46 47.9362 248.588 47.9362 245.866V218.155C48.0898 216.028 47.7228 213.896 46.8669 211.944C46.4931 211.325 45.9536 210.822 45.3094 210.494C44.6651 210.165 43.9418 210.023 43.2212 210.084H40.5963V253.012Z" fill="#95C5FF"/>
<path d="M85.3285 256.269C83.3761 258.959 80.2489 260.304 75.9471 260.304C71.633 260.304 68.4856 258.943 66.4684 256.233C64.4511 253.523 63.4668 249.439 63.4668 243.982V218.325C63.4668 208.034 67.6633 202.889 76.0564 202.889C80.3947 202.889 83.5057 204.19 85.4136 206.815C87.3215 209.44 88.2693 213.256 88.2693 218.325V243.994C88.2693 249.479 87.2891 253.571 85.3285 256.269ZM72.824 250.97C73.0477 251.59 73.4713 252.117 74.028 252.469C74.5847 252.822 75.2428 252.978 75.8984 252.915C76.5581 252.972 77.2181 252.807 77.7731 252.446C78.328 252.085 78.7462 251.548 78.9608 250.922C79.5575 248.692 79.8035 246.384 79.6899 244.079V217.936C79.7865 215.966 79.5314 213.994 78.9365 212.114C78.7122 211.533 78.3051 211.042 77.7768 210.713C77.2486 210.384 76.6276 210.236 76.0078 210.291C75.3721 210.244 74.7375 210.394 74.1898 210.72C73.642 211.047 73.2077 211.533 72.9455 212.114C72.2567 213.965 71.9588 215.939 72.0705 217.911V244.079C71.9429 246.402 72.1975 248.73 72.824 250.97Z" fill="#95C5FF"/>
<path d="M117.495 256.658C115.543 259.089 112.403 260.305 108.077 260.305C103.751 260.305 100.604 259.089 98.635 256.658C96.6826 254.228 95.7023 250.431 95.6942 245.27V203.521H104.201V245.1C104.085 246.909 104.224 248.726 104.614 250.496C104.88 251.114 105.218 251.697 105.623 252.234C105.943 252.539 106.328 252.767 106.749 252.902C107.169 253.037 107.615 253.074 108.053 253.012C108.549 253.059 109.049 252.985 109.51 252.797C109.972 252.609 110.381 252.311 110.702 251.93C111.258 251.133 111.594 250.202 111.674 249.232C111.81 247.859 111.871 246.48 111.857 245.1V203.521H120.363V245.258C120.412 250.427 119.456 254.228 117.495 256.658Z" fill="#95C5FF"/>
<path d="M139.029 260.304C137.412 260.362 135.806 260.01 134.361 259.282C132.917 258.553 131.68 257.471 130.765 256.136C128.772 253.364 127.776 249.086 127.776 243.301V218.859C127.776 213.682 128.792 209.728 130.826 206.997C132.855 204.287 136.076 202.913 140.548 202.913C146.057 202.913 149.552 204.967 151.035 209.075C152.046 212.343 152.498 215.757 152.372 219.175V223.162H144.412V217.304C144.534 215.459 144.256 213.61 143.598 211.883C143.296 211.352 142.845 210.92 142.301 210.641C141.757 210.363 141.143 210.249 140.536 210.315C139.879 210.267 139.224 210.421 138.657 210.755C138.09 211.09 137.639 211.589 137.364 212.187C136.604 214.304 136.289 216.555 136.44 218.799V243.106C136.302 245.695 136.581 248.288 137.267 250.788C137.474 251.47 137.907 252.061 138.494 252.465C139.081 252.869 139.788 253.062 140.499 253.012C141.242 253.033 141.972 252.816 142.582 252.391C143.193 251.967 143.651 251.358 143.89 250.654C144.697 248.124 145.035 245.467 144.886 242.815V235.255H140.608V229.032H152.396V259.672H148.556L147.244 254.154C146.857 255.958 145.813 257.552 144.315 258.627C142.78 259.742 140.926 260.331 139.029 260.304Z" fill="#95C5FF"/>
<path d="M57.8026 281.315C57.046 282.732 55.867 283.878 54.4294 284.594C52.7629 285.414 50.9226 285.817 49.0662 285.769H43.0967V266.929H49.0662C50.9187 266.879 52.7566 267.269 54.4294 268.067C55.8657 268.776 57.0449 269.915 57.8026 271.327C58.5627 272.882 58.9578 274.59 58.9578 276.321C58.9578 278.052 58.5627 279.76 57.8026 281.315ZM54.5241 281.675C55.7795 280.177 56.4676 278.285 56.4676 276.33C56.4676 274.376 55.7795 272.483 54.5241 270.985C53.7485 270.31 52.8468 269.794 51.871 269.469C50.8952 269.144 49.8647 269.015 48.8388 269.09H45.5224V283.59H48.8767C49.8977 283.658 50.9222 283.524 51.8913 283.196C52.8605 282.867 53.7552 282.351 54.5241 281.675Z" fill="#95C5FF"/>
<path d="M66.8802 268.919V275.345H74.0437V277.24H66.8802V283.703H74.8396V285.693H64.3787V266.853H74.7638V268.749L66.8802 268.919Z" fill="#95C5FF"/>
<path d="M91.2893 283.362C90.8472 284.159 90.1907 284.815 89.3942 285.257C88.4022 285.778 87.2922 286.033 86.1725 285.997C85.0239 286.019 83.8848 285.786 82.8371 285.314C81.9145 284.895 81.1176 284.241 80.5251 283.419C79.9349 282.632 79.586 281.69 79.5207 280.709H82.0412C82.1082 281.261 82.2958 281.791 82.5908 282.263C82.9275 282.791 83.3898 283.227 83.9363 283.533C84.5767 283.875 85.2951 284.045 86.0209 284.025C86.4678 284.057 86.9166 283.998 87.34 283.851C87.7634 283.705 88.1528 283.474 88.4845 283.173C88.768 282.883 88.9898 282.539 89.1364 282.161C89.283 281.783 89.3513 281.379 89.3373 280.974C89.3753 280.289 89.1594 279.614 88.7309 279.079C88.3292 278.599 87.8237 278.216 87.2527 277.96C86.4727 277.601 85.6685 277.297 84.8459 277.05C83.8687 276.748 82.9127 276.381 81.9843 275.951C81.224 275.605 80.5699 275.062 80.0892 274.378C79.5449 273.569 79.2788 272.604 79.3312 271.63C79.3019 270.721 79.5441 269.825 80.0269 269.055C80.5096 268.286 81.2109 267.677 82.0412 267.308C83.019 266.877 84.0809 266.669 85.1491 266.702C86.7342 266.61 88.2999 267.088 89.5647 268.047C90.6186 268.901 91.2984 270.131 91.4598 271.478H88.9204C88.7431 270.624 88.2603 269.864 87.5624 269.34C86.8646 268.817 85.9998 268.566 85.1302 268.635C84.2782 268.598 83.4422 268.874 82.7803 269.412C82.4817 269.679 82.248 270.011 82.0969 270.382C81.9458 270.753 81.8814 271.154 81.9085 271.554C81.8773 272.197 82.0792 272.83 82.4771 273.336C82.8654 273.791 83.3511 274.154 83.8984 274.397C84.6649 274.731 85.4494 275.022 86.2483 275.269C87.2504 275.578 88.2315 275.952 89.1857 276.387C89.777 276.712 90.2982 277.15 90.7195 277.677C91.1408 278.204 91.4538 278.809 91.6405 279.457C91.8272 280.105 91.8839 280.784 91.8073 281.454C91.7308 282.124 91.5225 282.773 91.1945 283.362H91.2893Z" fill="#95C5FF"/>
<path d="M99.7603 266.929V285.769H97.3157V266.929H99.7603Z" fill="#95C5FF"/>
<path d="M119.943 268.37C121.42 269.461 122.477 271.027 122.937 272.805H120.284C119.85 271.674 119.067 270.711 118.048 270.056C116.921 269.329 115.598 268.966 114.258 269.014C113.055 268.998 111.871 269.306 110.828 269.905C109.859 270.538 109.079 271.423 108.572 272.464C108.009 273.698 107.718 275.039 107.718 276.396C107.718 277.754 108.009 279.095 108.572 280.329C109.119 281.404 109.969 282.294 111.017 282.888C112.116 283.503 113.359 283.811 114.618 283.779C115.717 283.793 116.803 283.54 117.783 283.04C118.754 282.539 119.572 281.786 120.152 280.86C120.786 279.848 121.163 278.696 121.251 277.505H113.86V275.705H123.335V278.017C123.144 279.44 122.632 280.801 121.838 281.997C121.07 283.212 119.999 284.205 118.73 284.878C117.37 285.616 115.842 285.988 114.296 285.959C112.616 285.989 110.959 285.563 109.501 284.727C108.11 283.94 106.983 282.759 106.26 281.334C105.488 279.789 105.086 278.086 105.086 276.359C105.086 274.631 105.488 272.928 106.26 271.383C106.987 269.956 108.113 268.771 109.501 267.972C110.952 267.135 112.603 266.709 114.277 266.74C116.294 266.641 118.286 267.215 119.943 268.37Z" fill="#95C5FF"/>
<path d="M143.329 285.769H140.903L131.124 270.891V285.769H128.699V266.929H131.124L140.903 281.808V266.891H143.329V285.769Z" fill="#95C5FF"/>
<path d="M64.4338 62.6987C62.2032 62.7806 60.0958 63.7427 58.5726 65.3745C57.0494 67.0063 56.2343 69.175 56.3057 71.4063V110.566L90.5196 167.685V62.6987H64.4338ZM78.1788 123.09L68.63 107.162V75.0414H78.1788V123.09Z" fill="#224D8C"/>
<path d="M60.4194 30V58.5847H124.155V30H60.4194ZM111.815 46.242H72.7437V42.3261H111.815V46.242Z" fill="#224D8C"/>
<path d="M116.225 86.4094V75.1407H106.677V123.189L116.225 107.261V102.503H111.814V90.1601H128.55V110.665L94.3358 167.785V62.7981H120.422C122.649 62.88 124.754 63.8398 126.277 65.468C127.8 67.0962 128.617 69.2607 128.55 71.4892V86.3598L116.225 86.4094Z" fill="#224D8C"/>
</svg>
