<svg width="111" height="111" viewBox="0 0 111 111" fill="none" xmlns="http://www.w3.org/2000/svg">
<path d="M55.5 111C86.1518 111 111 86.1518 111 55.5C111 24.8482 86.1518 0 55.5 0C24.8482 0 0 24.8482 0 55.5C0 86.1518 24.8482 111 55.5 111Z" fill="#EDEFF1"/>
<path d="M72.3945 61.2402C72.3945 58.5977 70.2547 56.4579 67.6122 56.4579H45.6024C39.6244 56.4579 34.7605 51.594 34.7605 45.616C34.7605 39.638 39.6244 34.7741 45.6024 34.7741H52.939H69.8471C69.8471 29.4842 65.5587 25.1958 60.2688 25.1958H52.939L43.1568 25.3453C33.0486 26.5612 25.189 35.1817 25.189 45.6092C25.189 56.8654 34.3461 66.0226 45.6024 66.0226H67.6122C70.2547 66.0226 72.3945 63.8828 72.3945 61.2402Z" fill="#020202"/>
<path d="M68.2507 40.6707H45.9217C43.2791 40.6707 41.1393 42.8105 41.1393 45.453C41.1393 48.0956 43.2791 50.2354 45.9217 50.2354H68.2507C74.2287 50.2354 79.0926 55.0993 79.0926 61.0773C79.0926 67.0552 74.2287 71.9191 68.2507 71.9191H55.9285V75.0915V84.2011V96.0008H65.5V84.2011V81.4907H68.2507C79.507 81.4907 88.6641 72.3335 88.6641 61.0773C88.6641 49.821 79.507 40.6707 68.2507 40.6707Z" fill="#020202"/>
<path d="M52.25 96H65.5V85.5H55C51.6863 85.5 49 82.8137 49 79.5V71.5C44.0294 71.5 40 75.5294 40 80.5V83.75C40 90.5155 45.4845 96 52.25 96Z" fill="black"/>
</svg>
