<svg width="128" height="129" viewBox="0 0 128 129" fill="none" xmlns="http://www.w3.org/2000/svg">
<mask id="mask0_45_217" style="mask-type:luminance" maskUnits="userSpaceOnUse" x="0" y="0" width="128" height="129">
<path d="M128 64.1602C128 86.3269 116.827 105.846 99.8216 117.36C97.059 119.207 94.1122 120.931 91.0427 122.348C82.8163 126.165 73.6691 128.32 64.0307 128.32C54.3923 128.32 45.2451 126.165 37.0187 122.348C33.9492 120.931 31.0024 119.269 28.2398 117.36C11.1731 105.846 0 86.3269 0 64.1602C0 28.7551 28.6695 0 63.9693 0C99.2691 0 128 28.7551 128 64.1602Z" fill="white"/>
</mask>
<g mask="url(#mask0_45_217)">
<path d="M128 64.1602C128 86.3269 116.827 105.846 99.8216 117.36C97.059 119.207 94.1122 120.931 91.0427 122.348C82.8163 126.165 73.6691 128.32 64.0307 128.32C54.3923 128.32 45.2451 126.165 37.0187 122.348C33.9492 120.931 31.0024 119.269 28.2398 117.36C11.1731 105.846 0 86.3269 0 64.1602C0 28.7551 28.6695 0 63.9693 0C99.2691 0 128 28.7551 128 64.1602Z" fill="#FF8A00"/>
</g>
<mask id="mask1_45_217" style="mask-type:luminance" maskUnits="userSpaceOnUse" x="0" y="0" width="128" height="129">
<path d="M128 64.1602C128 86.3269 116.827 105.846 99.8216 117.36C97.059 119.207 94.1122 120.931 91.0427 122.348C82.8163 126.165 73.6691 128.32 64.0307 128.32C54.3923 128.32 45.2451 126.165 37.0187 122.348C33.9492 120.931 31.0024 119.269 28.2398 117.36C11.1731 105.846 0 86.3269 0 64.1602C0 28.7551 28.6695 0 63.9693 0C99.2691 0 128 28.7551 128 64.1602Z" fill="white"/>
</mask>
<g mask="url(#mask1_45_217)">
<path d="M64.0308 93.9621C42.8509 93.9621 25.6001 76.6598 25.6001 55.4167C25.6001 34.1737 42.8509 16.8713 64.0308 16.8713C85.2107 16.8713 102.461 34.1737 102.461 55.4167C102.461 76.6598 85.2107 93.9621 64.0308 93.9621ZM64.0308 20.5658C44.8768 20.5658 29.2836 36.2056 29.2836 55.4167C29.2836 74.6278 44.8768 90.2676 64.0308 90.2676C83.1848 90.2676 98.778 74.6278 98.778 55.4167C98.778 36.2056 83.1848 20.5658 64.0308 20.5658Z" fill="black"/>
</g>
<mask id="mask2_45_217" style="mask-type:luminance" maskUnits="userSpaceOnUse" x="0" y="0" width="128" height="129">
<path d="M128 64.1602C128 86.3269 116.827 105.846 99.8216 117.36C97.059 119.207 94.1122 120.931 91.0427 122.348C82.8163 126.165 73.6691 128.32 64.0307 128.32C54.3923 128.32 45.2451 126.165 37.0187 122.348C33.9492 120.931 31.0024 119.269 28.2398 117.36C11.1731 105.846 0 86.3269 0 64.1602C0 28.7551 28.6695 0 63.9693 0C99.2691 0 128 28.7551 128 64.1602Z" fill="white"/>
</mask>
<g mask="url(#mask2_45_217)">
<path d="M102.953 119.207C91.8408 126.719 78.3962 131.153 63.9693 131.153C49.5424 131.153 36.1592 126.781 24.9861 119.207L46.7798 46.7962C49.0513 39.2226 56.0499 33.9888 63.9693 33.9888C67.8983 33.9888 71.6432 35.2818 74.6513 37.5601C77.6595 39.7767 79.9923 42.9786 81.0974 46.7962L102.953 119.207Z" fill="white"/>
<path d="M63.9692 133C49.6651 133 35.7908 128.751 24.0037 120.747L22.8987 120.008L45.0608 46.2421C47.5778 37.8064 55.1903 32.1416 64.0306 32.1416C68.3279 32.1416 72.3797 33.4962 75.8176 36.0823C79.2555 38.6685 81.7112 42.1782 82.939 46.3036L105.101 120.008L103.996 120.747C92.1476 128.751 78.3347 133 63.9692 133ZM27.196 118.407C38.185 125.549 50.8315 129.305 63.9692 129.305C77.1068 129.305 89.8148 125.549 100.742 118.407L79.3783 47.2888C78.396 43.9638 76.3701 41.0698 73.5462 38.9763C70.7222 36.8828 67.4071 35.7745 63.9692 35.7745C56.7864 35.7745 50.6474 40.3925 48.5601 47.2888L27.196 118.407Z" fill="black"/>
</g>
<mask id="mask3_45_217" style="mask-type:luminance" maskUnits="userSpaceOnUse" x="0" y="0" width="128" height="129">
<path d="M128 64.1602C128 86.3269 116.827 105.846 99.8216 117.36C97.059 119.207 94.1122 120.931 91.0427 122.348C82.8163 126.165 73.6691 128.32 64.0307 128.32C54.3923 128.32 45.2451 126.165 37.0187 122.348C33.9492 120.931 31.0024 119.269 28.2398 117.36C11.1731 105.846 0 86.3269 0 64.1602C0 28.7551 28.6695 0 63.9693 0C99.2691 0 128 28.7551 128 64.1602Z" fill="white"/>
</mask>
<g mask="url(#mask3_45_217)">
<path d="M93.4367 124.626C84.4737 128.813 74.5283 131.153 64.0305 131.153C53.5327 131.153 43.5873 128.813 34.6243 124.626L47.5164 77.7065L53.6554 55.2935C54.7605 51.2296 58.5053 48.3972 62.6799 48.3972H65.3197C69.5557 48.3972 73.2391 51.2296 74.3442 55.2935L80.4833 77.7065L93.4367 124.626Z" fill="white"/>
<path d="M63.9692 133C53.41 133 43.2805 130.722 33.8263 126.35L32.4143 125.673L51.8752 54.801C53.2258 49.9366 57.646 46.55 62.68 46.55H65.3198C70.3539 46.55 74.774 49.9366 76.1246 54.801L95.5855 125.611L94.1735 126.288C84.7193 130.722 74.5285 133 63.9692 133ZM36.7731 123.579C45.3678 127.335 54.515 129.244 63.9692 129.244C73.4234 129.244 82.6321 127.335 91.1654 123.518L72.5639 55.7862C71.6431 52.5227 68.6963 50.2445 65.3198 50.2445H62.68C59.3035 50.2445 56.2954 52.5227 55.4359 55.7862L36.7731 123.579Z" fill="black"/>
</g>
<path d="M63.9693 93.4695C56.0498 93.4695 48.8671 87.4968 45.7362 78.3223L45.552 77.7681L51.8753 54.801C53.2259 49.9366 57.646 46.55 62.6801 46.55H65.3199C70.3539 46.55 74.7741 49.9366 76.1247 54.801L82.4479 77.7681L82.2638 78.3223C79.0714 87.4968 71.9501 93.4695 63.9693 93.4695ZM49.4196 77.645C52.1208 85.0338 57.8302 89.7751 63.9693 89.7751C70.1697 89.7751 75.8791 85.0338 78.5803 77.5834L72.564 55.7246C71.6431 52.4612 68.6964 50.1829 65.3199 50.1829H62.6801C59.3036 50.1829 56.2954 52.4612 55.4359 55.7246L49.4196 77.645Z" fill="black"/>
<path d="M63.9695 82.3861C71.8355 82.3861 78.2122 74.5844 78.2122 64.9606C78.2122 55.3368 71.8355 47.5352 63.9695 47.5352C56.1035 47.5352 49.7268 55.3368 49.7268 64.9606C49.7268 74.5844 56.1035 82.3861 63.9695 82.3861Z" fill="white"/>
<path d="M63.9694 84.2334C55.0677 84.2334 47.885 75.613 47.885 64.9607C47.885 54.3084 55.1291 45.688 63.9694 45.688C72.8097 45.688 80.0538 54.3084 80.0538 64.9607C80.0538 75.613 72.8711 84.2334 63.9694 84.2334ZM63.9694 49.3824C57.155 49.3824 51.5685 56.4019 51.5685 64.9607C51.5685 73.5195 57.155 80.5389 63.9694 80.5389C70.7838 80.5389 76.3704 73.581 76.3704 64.9607C76.3704 56.3403 70.8452 49.3824 63.9694 49.3824Z" fill="black"/>
<path d="M64.0306 116.621C55.8656 116.621 53.3486 102.767 51.7524 87.8048L55.4359 87.4353C57.2162 104.368 60.1016 112.927 64.0306 112.927C67.4685 112.927 71.2134 99.7501 72.5639 87.4353L76.2474 87.8663C76.2474 88.1742 75.4493 94.8242 73.7918 101.659C71.2747 111.695 68.0824 116.621 64.0306 116.621Z" fill="black"/>
<path d="M64.0307 126.35L56.4796 118.776C54.8834 117.175 54.8834 114.589 56.4796 112.988C58.0758 111.387 60.6542 111.387 62.2503 112.988L64.0307 114.774L65.811 112.988C67.4072 111.387 69.9856 111.387 71.5817 112.988C73.1779 114.589 73.1779 117.175 71.5817 118.776L64.0307 126.35Z" fill="#FF8A00"/>
<path d="M64.0308 128.998L55.1291 120.069C54.0241 118.961 53.4102 117.422 53.4102 115.882C53.4102 114.281 54.0241 112.804 55.1291 111.695C56.2341 110.587 57.7689 109.971 59.3037 109.971C60.8385 109.971 62.3732 110.587 63.4783 111.695L63.9694 112.188L64.4605 111.695C65.5656 110.587 67.1003 109.971 68.6351 109.971C70.1699 109.971 71.7046 110.587 72.8097 111.695C73.9147 112.804 74.5286 114.343 74.5286 115.882C74.5286 117.483 73.9147 118.961 72.8097 120.069L64.0308 128.998ZM59.3651 113.604C58.7512 113.604 58.1986 113.85 57.7689 114.281C57.3392 114.712 57.0936 115.267 57.0936 115.882C57.0936 116.498 57.3392 117.052 57.7689 117.483L64.0308 123.764L70.2926 117.483C70.7224 117.052 70.9679 116.498 70.9679 115.882C70.9679 115.267 70.7224 114.712 70.2926 114.281C69.4332 113.419 67.9598 113.419 67.1003 114.281L64.0308 117.36L60.9612 114.281C60.5315 113.85 59.979 113.604 59.3651 113.604Z" fill="black"/>
<path d="M81.8952 14.4084L76.0017 31.095C72.6866 28.5089 68.512 26.9695 63.9691 26.9695C59.4262 26.9695 55.313 28.5089 51.9365 31.095L46.043 14.4084L56.5408 17.1793L63.9691 9.9751L71.3974 17.1793L81.8952 14.4084Z" fill="white"/>
<path d="M76.8613 34.1121L74.8354 32.5727C71.7045 30.1713 67.8982 28.8783 63.9692 28.8783C59.9788 28.8783 56.234 30.1713 53.103 32.5727L51.0771 34.1121L43.1577 11.6991L55.9884 15.0857L63.9692 7.38892L71.95 15.0857L84.7807 11.6991L76.8613 34.1121ZM48.9898 17.1176L52.9189 28.2625C56.234 26.2306 60.0402 25.1838 63.9692 25.1838C67.8982 25.1838 71.7045 26.2306 75.0196 28.2625L78.9486 17.1176L70.845 19.2727L63.9078 12.6227L57.0934 19.2111L48.9898 17.1176Z" fill="black"/>
<path d="M63.9692 47.5352C63.9692 47.5352 69.1875 64.1602 78.7644 64.1602L63.9692 47.5352Z" fill="white"/>
<path d="M78.8258 66.0073C68.021 66.0073 62.4958 48.8282 62.2502 48.0893L65.7495 46.981C67.1001 51.2296 72.0728 62.3129 78.8258 62.3129V66.0073Z" fill="black"/>
<path d="M63.9693 47.5352C63.9693 47.5352 58.7511 64.1602 49.1741 64.1602L63.9693 47.5352Z" fill="white"/>
<path d="M49.1741 66.0073V62.3129C55.9271 62.3129 60.8997 51.2296 62.2503 46.981L65.7496 48.0893C65.504 48.8282 59.9789 66.0073 49.1741 66.0073Z" fill="black"/>
<path d="M63.2327 115.143C62.2504 115.143 60.8998 114.774 59.672 113.296C59.1195 112.619 58.8125 111.942 58.6898 111.141C58.3214 109.048 58.3828 107.323 58.4442 105.107C58.5056 103.506 58.5056 101.782 58.4442 99.3189L58.3828 96.6096L60.9612 97.5332C61.2068 97.6564 63.0485 98.3337 64.7675 100.612C64.9516 100.181 65.1358 99.6883 65.32 99.0726L66.3022 95.4397L68.5737 98.3953C68.7579 98.6416 73.2394 104.614 68.8807 111.264C67.3459 113.604 65.3814 114.959 63.4783 115.082C63.4169 115.143 63.3555 115.143 63.2327 115.143ZM62.189 103.444C62.189 104.122 62.189 104.737 62.1277 105.292C62.0663 107.323 62.0049 108.863 62.3118 110.587C62.3118 110.71 62.4346 110.833 62.5574 111.018C62.9257 111.511 63.1713 111.511 63.2941 111.511C63.8466 111.511 64.8289 110.772 65.8111 109.355C67.0389 107.447 67.2231 105.661 66.9775 104.183C66.3022 105.107 65.6269 105.476 65.4428 105.599L63.6624 106.585L62.8643 104.737C62.6188 104.245 62.4346 103.814 62.189 103.444Z" fill="black"/>
</svg>
