<svg width="91" height="104" viewBox="0 0 91 104" fill="none" xmlns="http://www.w3.org/2000/svg">
<path d="M14.9946 26.1802V32.6376C16.4549 33.4793 17.673 34.4355 18.6891 35.4321V27.7019C17.5249 27.17 16.3001 26.6582 14.9946 26.1802ZM14.9946 38.2804V43.8086C16.1723 44.4618 17.4038 45.014 18.6891 45.4516V40.2803C17.3499 39.7887 16.1117 39.0884 14.9946 38.2804ZM71.3136 46.8859V55.9829C71.3136 72.3253 51.2598 86.3177 45.0014 86.3177C38.7497 86.3177 18.6891 72.3253 18.6891 55.9829V46.8859C17.3836 46.4751 16.1521 45.9499 14.9946 45.3574V55.9021C14.9946 73.5037 35.6272 89.974 45.0014 89.974C54.3755 89.974 75.0081 73.497 75.0081 55.9021V45.3506C73.8506 45.9499 72.6191 46.4751 71.3136 46.8859ZM71.3136 40.2735V45.4449C72.5989 45.014 73.8304 44.4551 75.0081 43.8019V38.2736C73.891 39.0817 72.6528 39.7887 71.3136 40.2735ZM71.3136 27.7019V35.4321C72.3298 34.4355 73.5478 33.4861 75.0081 32.6376V26.1802C73.7093 26.6515 72.4778 27.17 71.3136 27.7019ZM45.0014 20.7058C36.4751 20.7058 17.6393 18.753 14.9946 18.4702V24.7324C16.3001 25.1903 17.5249 25.6886 18.6891 26.2004V22.7191C27.0875 23.884 35.9233 24.4766 45.0014 24.4766C52.9421 24.4766 61.7779 23.8705 71.3136 22.672V26.2071C72.4778 25.6953 73.7026 25.1903 75.0081 24.7392V18.4769C72.2894 18.7463 52.3567 20.7058 45.0014 20.7058Z" fill="#E7BF52"/>
<path d="M13.2786 42.7716C13.6554 43.0208 14.039 43.2564 14.4293 43.4854V37.8494C14.0323 37.5396 13.6487 37.2164 13.2786 36.8797V42.7716ZM13.2786 25.6077V31.7555C13.6756 31.9373 14.0592 32.1258 14.4293 32.3279V25.9848C14.0525 25.8502 13.6689 25.729 13.2786 25.6077ZM75.5733 45.0543V55.9021C75.5733 73.8067 54.5504 90.5665 45.0013 90.5665C35.4522 90.5665 14.4293 73.8067 14.4293 55.9021V45.0476C14.039 44.8321 13.6554 44.6099 13.2786 44.3809V55.9762C13.2786 74.5675 35.0888 91.9671 45.0013 91.9671C54.9138 91.9671 76.7241 74.5675 76.7241 55.9762V44.3809C76.3472 44.6166 75.9636 44.8388 75.5733 45.0543ZM75.5733 25.9848V32.3279C75.9434 32.1326 76.327 31.9373 76.7241 31.7555V25.6077C76.3337 25.729 75.9502 25.8502 75.5733 25.9848ZM75.5733 37.8494V43.4854C75.9636 43.2564 76.3472 43.014 76.7241 42.7716V36.8865C76.3539 37.2164 75.9704 37.5396 75.5733 37.8494ZM45.0013 18.8203C35.3445 18.8203 13.2786 16.4501 13.2786 16.4501V24.1802C13.6689 24.2947 14.0525 24.4159 14.4293 24.5438V17.8305L14.7389 17.8641C14.9475 17.8843 35.8963 20.1266 45.0013 20.1266C52.8344 20.1266 75.0417 17.8843 75.2638 17.8641L75.5733 17.8305V24.5438C75.9502 24.4159 76.3337 24.2947 76.7241 24.1802V16.4434C76.7241 16.4434 53.3189 18.8203 45.0013 18.8203Z" fill="#E7BF52"/>
<path d="M89.9545 24.2544C88.7701 22.6047 86.0245 23.1434 78.474 25.1029C77.8751 25.2577 77.2896 25.4261 76.7244 25.6011C76.3341 25.7223 75.9505 25.8503 75.5736 25.9782C75.3852 26.0456 75.1968 26.1129 75.0083 26.1802C73.7028 26.6516 72.4781 27.1701 71.3139 27.6953C70.1429 28.2205 69.046 28.7592 67.9895 29.2709C65.2775 30.5907 62.9357 31.7287 60.6678 32.1529C58.6288 32.5367 57.3502 31.796 56.2062 31.0015C55.9841 30.8466 55.7688 30.6917 55.54 30.5234C55.1564 30.2473 54.7594 29.9578 54.3287 29.6682C51.7715 28.2609 48.4673 27.6818 46.7244 27.4596C45.7957 27.3451 45.1497 27.3047 45.0016 27.2913C44.8536 27.298 44.2075 27.3384 43.2789 27.4596C41.5359 27.6818 38.2318 28.2609 35.6746 29.6682C35.2371 29.9578 34.8401 30.2406 34.4633 30.5234C34.2345 30.6917 34.0191 30.8466 33.797 31.0015C32.6598 31.796 31.3744 32.5367 29.3354 32.1529C27.0676 31.7287 24.7257 30.5907 22.0137 29.2709C20.9572 28.7592 19.8536 28.2205 18.6894 27.6953C17.5252 27.1701 16.3004 26.6516 14.9949 26.1802C14.8065 26.1129 14.618 26.0456 14.4296 25.9782C14.0528 25.8503 13.6692 25.7223 13.2789 25.6011C12.7136 25.4261 12.1281 25.2577 11.5292 25.1029C3.97873 23.1434 1.22638 22.6047 0.0487192 24.2612C-0.038764 24.4093 -0.0993292 25.3116 0.721667 27.4057C2.45787 31.8432 6.93297 38.6037 13.2789 42.7718C13.6557 43.0209 14.0393 43.2566 14.4296 43.4855C14.618 43.5932 14.8065 43.701 14.9949 43.8087C16.1725 44.4619 17.404 45.014 18.6894 45.4517C18.8307 45.4988 18.972 45.546 19.1133 45.5864C19.5306 45.6403 21.6907 45.9567 23.3664 46.96L23.6086 47.1082L23.6759 47.3842C23.723 47.5728 23.7634 47.7344 23.8038 47.8893C24.2816 49.6265 24.1806 51.6264 24.0931 53.3906C24.0595 54.0303 24.0326 54.6363 24.0326 55.1885C24.0326 58.4408 24.5507 61.9355 24.8334 63.0802C25.6813 66.5817 31.0649 75.0054 37.9222 77.9749L38.077 78.0422L38.1847 78.1769C38.2789 78.2913 40.5265 80.9982 45.0016 80.9982C49.4027 80.9982 51.8051 78.1903 51.832 78.1634L51.933 78.0422L52.081 77.9749C58.9316 75.0054 64.3219 66.5817 65.1699 63.0802C65.4458 61.9355 65.9707 58.4408 65.9707 55.1885C65.9707 54.643 65.9437 54.037 65.9101 53.3906C65.8226 51.6264 65.7284 49.6265 66.1995 47.8893C66.2398 47.7344 66.2802 47.5728 66.3273 47.3842L66.3946 47.1082L66.6369 46.96C68.3192 45.95 70.4727 45.6403 70.8899 45.5864C71.0312 45.5392 71.1725 45.4988 71.3139 45.4517C72.5992 45.0208 73.8307 44.4619 75.0083 43.8087C75.1968 43.7077 75.3852 43.6 75.5736 43.4922C75.9639 43.2633 76.3475 43.0209 76.7244 42.7785C83.0703 38.6104 87.5454 31.8432 89.2816 27.4125C90.1026 25.3183 90.042 24.4093 89.9545 24.2544ZM21.9397 40.9739C20.8024 40.8931 19.7122 40.6507 18.6894 40.2736C17.3502 39.782 16.112 39.0818 14.9949 38.2737C14.7997 38.1323 14.618 37.9909 14.4296 37.8495C14.0326 37.5398 13.649 37.2166 13.2789 36.8799C9.83338 33.7622 7.85491 30.0184 7.85491 30.0184C9.91413 30.4358 11.7109 31.0351 13.2789 31.7556C13.6759 31.9374 14.0595 32.126 14.4296 32.328C14.6248 32.429 14.8132 32.5367 14.9949 32.6377C16.4552 33.4794 17.6732 34.4356 18.6894 35.4322C20.4525 37.156 21.61 39.0077 22.3569 40.6305L22.3637 40.6439L23.5346 43.0411C23.4808 42.9401 22.6934 41.5193 21.9397 40.9739ZM28.2452 51.4715C26.9397 50.7308 26.6032 49.7073 26.5629 48.9195C26.5292 48.2596 26.7042 47.7748 26.7042 47.7748C26.7042 47.7748 27.3098 47.5257 28.0366 47.4044C28.6355 47.3034 29.3085 47.2967 29.793 47.5795C30.8697 48.2125 31.9532 50.2931 32.4108 51.1887C32.4175 51.1954 30.6409 52.8317 28.2452 51.4715ZM45.0083 72.7025H44.9949C42.0743 72.7025 39.8872 70.642 39.8872 70.642C39.8872 70.642 41.7647 71.1268 43.6423 71.3154C44.0999 71.3625 44.5575 71.3962 44.9949 71.3962H45.0083C45.439 71.3962 45.9034 71.3625 46.361 71.3154C48.2385 71.1268 50.116 70.642 50.116 70.642C50.116 70.642 47.9289 72.7025 45.0083 72.7025ZM47.3973 67.3628L46.6234 69.632C46.0716 69.6791 45.5265 69.706 45.0083 69.706H44.9949C44.4767 69.706 43.9316 69.6791 43.3798 69.632L42.6059 67.3628C42.6059 67.3628 39.9747 65.814 39.8939 64.7367C39.8603 64.3259 40.6611 64.1172 41.0985 64.4202C41.9868 65.0464 43.723 66.1507 45.0016 66.1507H45.0151C46.2937 66.1507 48.0299 65.0531 48.9182 64.4202C49.3489 64.1172 50.1497 64.3259 50.1227 64.7367C50.0285 65.814 47.3973 67.3628 47.3973 67.3628ZM63.4404 48.9195C63.4 49.7006 63.0635 50.7308 61.758 51.4715C59.369 52.8317 57.5857 51.1954 57.5857 51.1954C58.0501 50.2999 59.1268 48.2259 60.2035 47.5863C60.688 47.2967 61.3677 47.3102 61.9599 47.4112C62.6867 47.5324 63.2923 47.7815 63.2923 47.7815C63.2923 47.7815 63.474 48.2663 63.4404 48.9195ZM76.7244 36.8866C76.361 37.2166 75.9774 37.5398 75.5736 37.8562C75.3919 38.0044 75.2035 38.1458 75.0083 38.2805C73.8845 39.0885 72.653 39.7888 71.3139 40.2803C70.291 40.6507 69.2075 40.8998 68.0635 40.9806C67.3031 41.526 66.5225 42.9468 66.4619 43.0411L67.6328 40.6439L67.6396 40.6305C68.3933 39.0077 69.544 37.1627 71.3071 35.4322C72.3233 34.4356 73.5413 33.4862 75.0016 32.6377C75.1833 32.53 75.3717 32.429 75.5669 32.328C75.937 32.1327 76.3206 31.9374 76.7176 31.7556C78.2789 31.0351 80.0756 30.4358 82.1416 30.0184C82.1416 30.0184 80.1699 33.769 76.7244 36.8866Z" fill="#E7BF52"/>
<path d="M84.5843 47.3101C84.1469 50.6701 83.3191 54.0638 83.124 57.4104C83.023 59.1342 83.1374 60.9186 83.5816 62.6155C84.3218 58.6494 84.6718 54.6564 84.692 50.6162C84.7189 54.6699 84.416 58.6898 83.7296 62.6895C84.7727 61.5583 85.2909 60.0634 85.5331 58.609C86.1321 54.9998 85.338 50.926 84.5843 47.3101Z" fill="#E7BF52"/>
<path d="M89.5642 60.6223C87.9155 60.6897 85.8967 61.1341 84.7527 62.373C83.9855 63.2013 83.5885 64.3796 83.3462 65.4772C84.9747 64.1844 86.5629 62.8444 88.2251 61.592C86.5831 62.9185 85.0151 64.319 83.4 65.6725C84.1605 66.0698 85.1026 66.0765 85.8294 65.6052C87.505 64.548 88.6557 62.3394 89.5642 60.6223Z" fill="#E7BF52"/>
<path d="M88.6691 66.3594C86.9329 66.4402 84.8198 66.8307 83.5076 68.0024C82.6664 68.7565 82.1347 69.8676 81.7781 70.9449C83.6018 69.7598 85.3784 68.5074 87.202 67.3155C85.4053 68.5815 83.6421 69.8945 81.8252 71.1402C82.6058 71.5644 83.5748 71.5914 84.3622 71.1671C86.1792 70.1908 87.5587 68.0562 88.6691 66.3594Z" fill="#E7BF52"/>
<path d="M87.229 71.9482C85.4121 72.0021 83.225 72.2917 81.7311 73.369C80.8159 74.0356 80.1564 75.0726 79.6853 76.1029C81.6974 75.0659 83.649 73.9346 85.6274 72.8371C83.6624 74.002 81.7176 75.1938 79.719 76.2914C80.5803 76.7829 81.5225 76.7627 82.3704 76.453C84.2546 75.7662 85.937 73.5912 87.229 71.9482Z" fill="#E7BF52"/>
<path d="M85.2708 77.3352C83.3731 77.3284 81.112 77.49 79.4498 78.4462C78.4606 79.0186 77.6799 79.9612 77.0945 80.9444C79.2816 80.0825 81.4148 79.1128 83.5481 78.1365C81.4215 79.1734 79.295 80.2104 77.1147 81.1262C77.9895 81.6648 78.972 81.7052 79.8805 81.4561C81.8724 80.9039 83.7836 78.8973 85.2708 77.3352Z" fill="#E7BF52"/>
<path d="M82.8079 82.4458C80.8227 82.3515 78.4943 82.365 76.6639 83.173C75.6074 83.6444 74.6989 84.4861 73.999 85.4086C76.3543 84.7419 78.6625 83.9608 80.964 83.1326C78.6625 84.0214 76.3611 84.8631 74.0058 85.5836C74.8469 86.1358 75.9169 86.3176 76.8927 86.0954C79.0798 85.5904 81.139 83.9002 82.8079 82.4458Z" fill="#E7BF52"/>
<path d="M79.8737 87.2267C77.7876 87.0247 75.3986 86.8698 73.3932 87.5163C72.2694 87.8799 71.2465 88.6071 70.4255 89.4555C72.9491 88.9976 75.439 88.4186 77.9154 87.7721C75.439 88.4792 72.9491 89.1188 70.4255 89.6239C71.334 90.2501 72.4107 90.4319 73.4471 90.3242C75.6611 90.1087 78.0029 88.5465 79.8737 87.2267Z" fill="#E7BF52"/>
<path d="M76.4821 91.6103C74.2883 91.2871 71.8253 90.9639 69.6517 91.4352C68.4605 91.6911 67.33 92.2971 66.3811 93.0647C69.0729 92.8223 71.7445 92.4587 74.4094 92.0076C71.7445 92.5193 69.0662 92.9368 66.3677 93.2331C67.3165 93.8997 68.4471 94.1421 69.544 94.1219C71.8589 94.0613 74.4027 92.7752 76.4821 91.6103Z" fill="#E7BF52"/>
<path d="M72.6599 95.5292C70.3382 95.0714 67.7339 94.5529 65.4391 94.8828C64.1942 95.0579 62.9627 95.5023 61.8591 96.1891C64.7325 96.1487 67.5926 96.0073 70.4593 95.7649C67.5926 96.0612 64.7258 96.2565 61.8389 96.344C62.8348 97.0443 64.0327 97.3473 65.1969 97.4012C67.6464 97.5022 70.3651 96.5056 72.6599 95.5292Z" fill="#E7BF52"/>
<path d="M68.427 98.9229C65.964 98.3304 63.3126 97.7176 60.7823 97.8186C59.4498 97.8725 58.1039 98.2226 56.8926 98.7815C59.9613 98.9364 63.0232 99.0105 66.0918 98.9835C63.0165 99.0576 59.9411 99.0307 56.8657 98.9162C57.9357 99.6367 59.1941 99.9801 60.4323 100.108C63.0165 100.377 65.9034 99.6905 68.427 98.9229Z" fill="#E7BF52"/>
<path d="M63.8104 101.724C61.1926 101.004 58.3797 100.236 55.6946 100.196C54.2882 100.175 52.8548 100.371 51.4887 100.808C54.766 101.138 58.05 101.414 61.334 101.616C58.0365 101.468 54.7458 101.226 51.4551 100.929C52.6125 101.65 53.9517 102.027 55.264 102.222C58.0163 102.633 61.0446 102.249 63.8104 101.724Z" fill="#E7BF52"/>
<path d="M79.0596 55.2153C80.5535 56.993 82.2224 59.1208 82.781 61.3429C83.0905 62.5617 83.0972 63.868 82.7877 65.1339C81.9734 62.5213 81.065 59.949 80.0152 57.4239C81.0246 59.9894 81.8927 62.5886 82.6598 65.2349C81.7177 64.7972 81.1322 63.9286 80.7419 63.033C79.7325 60.7234 79.5306 57.7876 79.0596 55.2153Z" fill="#E7BF52"/>
<path d="M78.1711 61.0532C79.5574 62.7501 81.0648 64.7904 81.5224 66.9518C81.7781 68.1437 81.6234 69.4365 81.2129 70.588C80.5803 68.0763 79.8535 65.5984 78.972 63.1608C79.8131 65.6321 80.4928 68.1437 81.0715 70.689C80.1496 70.2378 79.5978 69.3961 79.2546 68.5073C78.4067 66.3121 78.4471 63.484 78.1711 61.0532Z" fill="#E7BF52"/>
<path d="M76.7646 66.5344C78.0432 68.1707 79.443 70.1908 79.7458 72.2714C79.914 73.4431 79.6381 74.6753 79.1267 75.7392C78.6691 73.3084 78.124 70.918 77.4107 68.5478C78.0702 70.9449 78.5682 73.369 78.9652 75.82C78.0634 75.3487 77.5385 74.5204 77.2424 73.6316C76.5695 71.5375 76.8387 68.8306 76.7646 66.5344Z" fill="#E7BF52"/>
<path d="M74.8469 71.6453C76.0178 73.2411 77.3099 75.2612 77.4579 77.2678C77.5454 78.4125 77.1484 79.5841 76.536 80.5538C76.2466 78.2105 75.8698 75.8874 75.3381 73.5845C75.8227 75.9144 76.1389 78.2576 76.361 80.6278C75.4795 80.1363 74.968 79.3148 74.7325 78.4192C74.1941 76.3992 74.7123 73.8135 74.8469 71.6453Z" fill="#E7BF52"/>
<path d="M72.3974 76.3721C73.4607 77.941 74.6518 79.9678 74.6585 81.8936C74.6585 83.0114 74.1403 84.1157 73.4405 84.9843C73.3059 82.7218 73.0973 80.4728 72.7339 78.2305C73.0367 80.493 73.1847 82.7555 73.252 85.0382C72.3907 84.5197 71.886 83.7049 71.6975 82.8026C71.3005 80.8836 72.0677 78.4123 72.3974 76.3721Z" fill="#E7BF52"/>
<path d="M69.4296 80.7153C70.3852 82.2641 71.4888 84.2976 71.361 86.1426C71.2802 87.2334 70.6409 88.2637 69.8603 89.0178C69.867 86.8429 69.8132 84.6747 69.618 82.5065C69.7459 84.6881 69.7324 86.8698 69.6517 89.0582C68.8643 88.5599 68.2452 87.7384 68.1577 86.8025C67.976 84.8363 68.9047 82.6075 69.4296 80.7153Z" fill="#E7BF52"/>
<path d="M65.9302 84.6611C66.7848 86.1695 67.8212 88.2165 67.5587 89.9739C67.4039 91.0378 66.6368 91.9671 65.7821 92.6067C65.9167 90.5328 65.9975 88.4589 65.9706 86.3782C65.9302 88.4723 65.7754 90.5463 65.5601 92.6269C64.7862 92.1287 64.1334 91.3139 64.1065 90.3712C64.0459 88.4925 65.2236 86.3849 65.9302 84.6611Z" fill="#E7BF52"/>
<path d="M61.906 88.1895C62.6732 89.6439 63.6557 91.6976 63.2855 93.3406C63.05 94.3709 62.155 95.1856 61.2532 95.7041C61.4955 93.7447 61.7041 91.7852 61.8185 89.819C61.6234 91.7919 61.334 93.7514 61.011 95.7109C60.2505 95.2193 59.544 94.4247 59.5641 93.4888C59.6045 91.7111 61.0446 89.7382 61.906 88.1895Z" fill="#E7BF52"/>
<path d="M57.3569 91.3071C58.0433 92.6808 59.0056 94.721 58.5345 96.2361C58.225 97.2259 57.1953 97.8993 56.2599 98.2966C56.5897 96.4785 56.8992 94.6604 57.1482 92.8356C56.8185 94.6672 56.4215 96.4785 56.0042 98.2898C55.264 97.8252 54.4632 97.0643 54.5237 96.1418C54.6381 94.4719 56.3676 92.6538 57.3569 91.3071Z" fill="#E7BF52"/>
<path d="M52.2694 93.9939C52.8886 95.2531 53.8643 97.2664 53.3125 98.6131C52.9289 99.5558 51.758 100.061 50.8092 100.344C51.2062 98.7007 51.5965 97.0577 51.9532 95.4012C51.5157 97.0509 51.0312 98.6805 50.5332 100.317C49.8199 99.8992 48.8913 99.1855 48.9922 98.3034C49.1672 96.7547 51.1995 95.1184 52.2694 93.9939Z" fill="#E7BF52"/>
<path d="M5.41882 47.3101C5.85624 50.6701 6.68397 54.0638 6.87912 57.4104C6.98006 59.1342 6.86566 60.9186 6.42152 62.6155C5.68127 58.6494 5.33134 54.6564 5.31115 50.6162C5.28424 54.6699 5.58706 58.6898 6.27347 62.6895C5.2304 61.5583 4.71223 60.0634 4.46997 58.609C3.87105 54.9998 4.66512 50.926 5.41882 47.3101Z" fill="#E7BF52"/>
<path d="M0.438965 60.6223C2.08769 60.6897 4.10653 61.1341 5.25054 62.373C6.01097 63.2013 6.40801 64.3796 6.65027 65.4772C5.02174 64.1844 3.43358 62.8444 1.7714 61.592C3.40666 62.9185 4.98136 64.319 6.58971 65.6725C5.82927 66.0698 4.88715 66.0765 4.16036 65.6052C2.49818 64.548 1.34744 62.3394 0.438965 60.6223Z" fill="#E7BF52"/>
<path d="M1.33398 66.3594C3.07019 66.4402 5.17651 66.8307 6.49549 68.0024C7.33668 68.7565 7.8683 69.8676 8.21824 70.9449C6.39455 69.7598 4.61797 68.5074 2.80101 67.3155C4.60451 68.5815 6.3609 69.8945 8.17786 71.1402C7.39051 71.5644 6.4282 71.5914 5.63412 71.1671C3.82389 70.1908 2.44435 68.0562 1.33398 66.3594Z" fill="#E7BF52"/>
<path d="M2.77417 71.9482C4.59113 72.0021 6.78494 72.2917 8.27215 73.369C9.18736 74.0356 9.84685 75.0726 10.3179 76.1029C8.3058 75.0659 6.34752 73.9346 4.37578 72.8371C6.33406 74.002 8.27888 75.1938 10.2843 76.2914C9.42289 76.7829 8.48076 76.7627 7.63285 76.453C5.7486 75.7662 4.06623 73.5912 2.77417 71.9482Z" fill="#E7BF52"/>
<path d="M4.73242 77.3352C6.63013 77.3284 8.89124 77.49 10.5534 78.4462C11.5427 79.0186 12.3233 79.9612 12.9087 80.9444C10.7284 80.0825 8.58841 79.1128 6.45517 78.1365C8.58168 79.1734 10.7082 80.2104 12.8885 81.1262C12.0137 81.6648 11.0312 81.7052 10.1295 81.4561C8.13081 80.9039 6.21964 78.8973 4.73242 77.3352Z" fill="#E7BF52"/>
<path d="M7.19531 82.4458C9.18051 82.3515 11.5089 82.365 13.3393 83.173C14.3959 83.6444 15.3043 84.4861 16.0042 85.4086C13.6489 84.7419 11.3407 83.9608 9.03919 83.1326C11.3339 84.0214 13.6421 84.8631 15.9975 85.5836C15.1563 86.1358 14.0863 86.3176 13.1105 86.0954C10.9234 85.5904 8.86422 83.9002 7.19531 82.4458Z" fill="#E7BF52"/>
<path d="M10.1294 87.2267C12.2155 87.0247 14.6045 86.8698 16.6099 87.5163C17.7337 87.8799 18.7566 88.6071 19.5776 89.4555C17.054 88.9976 14.5708 88.4186 12.0877 87.7721C14.5641 88.4792 17.054 89.1188 19.5776 89.6239C18.6691 90.2501 17.5924 90.4319 16.556 90.3242C14.342 90.1087 12.0002 88.5465 10.1294 87.2267Z" fill="#E7BF52"/>
<path d="M13.521 91.6103C15.7148 91.2871 18.1778 90.9639 20.3514 91.4352C21.5425 91.6911 22.6798 92.2971 23.6219 93.0647C20.9301 92.8223 18.2585 92.4587 15.5937 92.0076C18.2585 92.5193 20.9369 92.9368 23.6354 93.2331C22.6865 93.8997 21.556 94.1421 20.4591 94.1219C18.1441 94.0613 15.6004 92.7752 13.521 91.6103Z" fill="#E7BF52"/>
<path d="M17.3435 95.5292C19.6584 95.0714 22.2695 94.5529 24.5642 94.8828C25.8092 95.0579 27.0407 95.5023 28.1443 96.1891C25.2708 96.1487 22.4108 96.0073 19.544 95.7649C22.4108 96.0612 25.2776 96.2565 28.1578 96.344C27.1618 97.0443 25.9707 97.3473 24.7998 97.4012C22.357 97.5022 19.6383 96.5056 17.3435 95.5292Z" fill="#E7BF52"/>
<path d="M21.5762 98.9229C24.0392 98.3304 26.6906 97.7176 29.2209 97.8186C30.5533 97.8725 31.8992 98.2226 33.1105 98.7815C30.0419 98.9364 26.9799 99.0105 23.9113 98.9835C26.9867 99.0576 30.062 99.0307 33.1374 98.9162C32.0674 99.6367 30.809 99.9801 29.5708 100.108C26.9867 100.377 24.0997 99.6905 21.5762 98.9229Z" fill="#E7BF52"/>
<path d="M26.1926 101.724C28.8104 101.004 31.63 100.236 34.3084 100.196C35.7148 100.175 37.1482 100.371 38.5143 100.808C35.237 101.138 31.9531 101.414 28.6691 101.616C31.9665 101.468 35.2572 101.226 38.5479 100.929C37.3905 101.65 36.0513 102.027 34.7391 102.222C31.9867 102.633 28.9584 102.249 26.1926 101.724Z" fill="#E7BF52"/>
<path d="M10.9437 55.2153C9.44973 56.993 7.77409 59.1208 7.21554 61.3429C6.90598 62.5617 6.89925 63.868 7.20881 65.1339C8.02981 62.5213 8.93156 59.949 9.98135 57.4239C8.9652 59.9894 8.10383 62.5886 7.33667 65.2349C8.2788 64.7972 8.86426 63.9286 9.25457 63.033C10.2707 60.7234 10.4726 57.7876 10.9437 55.2153Z" fill="#E7BF52"/>
<path d="M11.8319 61.0532C10.4456 62.7501 8.93818 64.7904 8.48058 66.9518C8.22486 68.1437 8.37964 69.4365 8.79013 70.588C9.4227 68.0763 10.1495 65.5984 11.031 63.1608C10.1899 65.6321 9.51019 68.1437 8.93145 70.689C9.85339 70.2378 10.4052 69.3961 10.7484 68.5073C11.5963 66.3121 11.5559 63.484 11.8319 61.0532Z" fill="#E7BF52"/>
<path d="M13.2385 66.5344C11.9599 68.1707 10.5601 70.1908 10.2573 72.2714C10.0891 73.4431 10.365 74.6753 10.8764 75.7392C11.334 73.3084 11.8791 70.918 12.5925 68.5478C11.933 70.9449 11.435 73.369 11.0379 75.82C11.9397 75.3487 12.4646 74.5204 12.7607 73.6316C13.4404 71.5375 13.1645 68.8306 13.2385 66.5344Z" fill="#E7BF52"/>
<path d="M15.1563 71.6453C13.9921 73.2411 12.6933 75.2612 12.5453 77.2678C12.4578 78.4125 12.8548 79.5841 13.4672 80.5538C13.7566 78.2105 14.1334 75.8874 14.665 73.5845C14.1805 75.9144 13.8642 78.2576 13.6422 80.6278C14.5237 80.1363 15.0352 79.3148 15.2707 78.4192C15.8091 76.3992 15.2909 73.8135 15.1563 71.6453Z" fill="#E7BF52"/>
<path d="M17.6058 76.3721C16.5426 77.941 15.3515 79.9678 15.3447 81.8936C15.3447 83.0114 15.8629 84.1157 16.5628 84.9843C16.6974 82.7218 16.906 80.4728 17.2694 78.2305C16.9665 80.493 16.8185 82.7555 16.7512 85.0382C17.6126 84.5197 18.1173 83.7049 18.3057 82.8026C18.7027 80.8836 17.9356 78.4123 17.6058 76.3721Z" fill="#E7BF52"/>
<path d="M20.5802 80.7153C19.6246 82.2641 18.5143 84.2976 18.6488 86.1426C18.7296 87.2334 19.3689 88.2637 20.1495 89.0178C20.1428 86.8429 20.1966 84.6747 20.3918 82.5065C20.2639 84.6881 20.2774 86.8698 20.3581 89.0582C21.1522 88.5599 21.7646 87.7384 21.8521 86.8025C22.027 84.8363 21.0984 82.6075 20.5802 80.7153Z" fill="#E7BF52"/>
<path d="M24.0729 84.6611C23.2116 86.1695 22.182 88.2165 22.4377 89.9739C22.5925 91.0378 23.3596 91.9671 24.2143 92.6067C24.0864 90.5328 23.9989 88.4589 24.0258 86.3782C24.0662 88.4723 24.2277 90.5463 24.4363 92.6269C25.2102 92.1287 25.863 91.3139 25.8966 90.3712C25.9572 88.4925 24.7795 86.3849 24.0729 84.6611Z" fill="#E7BF52"/>
<path d="M28.097 88.1895C27.3299 89.6439 26.3407 91.6976 26.7175 93.3406C26.953 94.3709 27.8481 95.1856 28.7498 95.7041C28.5143 93.7447 28.3057 91.7852 28.1845 89.819C28.3797 91.7919 28.6691 93.7514 28.9853 95.7109C29.7458 95.2193 30.4591 94.4247 30.4389 93.4888C30.3985 91.7111 28.9584 89.7382 28.097 88.1895Z" fill="#E7BF52"/>
<path d="M32.6463 91.3071C31.9598 92.6808 30.9975 94.721 31.4686 96.2361C31.7782 97.2259 32.8078 97.8993 33.7432 98.2966C33.4201 96.4785 33.1039 94.6604 32.8549 92.8356C33.1846 94.6672 33.5817 96.4785 33.9989 98.2898C34.7391 97.8252 35.5399 97.0643 35.4794 96.1418C35.3582 94.4719 33.6355 92.6538 32.6463 91.3071Z" fill="#E7BF52"/>
<path d="M37.7337 93.9939C37.1146 95.2531 36.1388 97.2664 36.6906 98.6131C37.0742 99.5558 38.2451 100.061 39.194 100.344C38.7969 98.7007 38.4066 97.0577 38.05 95.4012C38.4874 97.0509 38.9719 98.6805 39.4699 100.317C40.1832 99.8992 41.1186 99.1855 41.0177 98.3034C40.836 96.7547 38.8037 95.1184 37.7337 93.9939Z" fill="#E7BF52"/>
<path d="M45.0015 99.1584L45.7889 100.754L47.5452 101.01L46.2734 102.249L46.5762 104L45.0015 103.172L43.4268 104L43.7296 102.249L42.4578 101.01L44.2142 100.754L45.0015 99.1584Z" fill="#E7BF52"/>
<path d="M57.7739 8.4843C57.6057 9.50107 56.9866 9.5886 56.9866 9.5886C55.957 7.04331 53.6757 7.4406 53.6757 7.4406C55.7887 8.91525 55.1023 11.6625 55.1023 11.6625C51.3944 9.4472 47.5989 9.71654 47.5989 9.71654C48.1642 7.37326 50.1965 6.90191 50.1965 6.90191C48.4065 5.22525 46.5424 6.29589 46.5424 6.29589C46.5424 6.29589 47.6461 5.11751 47.3432 3.7304C47 2.16148 45.4792 2.05374 45.0014 0C44.5236 2.05374 43.0094 2.16148 42.6595 3.7304C42.3567 5.11751 43.4603 6.30262 43.4603 6.30262C43.4603 6.30262 41.5963 5.23198 39.8062 6.90864C39.8062 6.90864 41.8385 7.37999 42.4038 9.72328C42.4038 9.72328 38.6084 9.45393 34.9004 11.6693C34.9004 11.6693 34.214 8.92198 36.3271 7.44733C36.3271 7.44733 34.0458 7.04331 33.0162 9.59534C33.0162 9.59534 32.3971 9.5078 32.2288 8.49103C31.852 6.17468 29.7591 7.5416 27.9893 6.30936L33.467 14.4233H44.9946H56.529L62.0068 6.30936C60.2436 7.53487 58.1508 6.16795 57.7739 8.4843Z" fill="#E7BF52"/>
</svg>
