<svg width="38" height="38" viewBox="0 0 38 38" fill="none" xmlns="http://www.w3.org/2000/svg">
<g clip-path="url(#clip0_38_503)">
<path d="M22.6367 19C22.6367 21.0085 21.0085 22.6367 19 22.6367C16.9915 22.6367 15.3633 21.0085 15.3633 19C15.3633 16.9915 16.9915 15.3633 19 15.3633C21.0085 15.3633 22.6367 16.9915 22.6367 19Z" fill="#95C5FF"/>
<path d="M27.5049 12.5655C27.3301 12.0918 27.0512 11.663 26.6888 11.311C26.3369 10.9486 25.9084 10.6697 25.4344 10.4949C25.0499 10.3456 24.4724 10.1679 23.4087 10.1194C22.258 10.067 21.913 10.0557 18.9999 10.0557C16.0866 10.0557 15.7416 10.0667 14.5912 10.1192C13.5275 10.1679 12.9497 10.3456 12.5655 10.4949C12.0915 10.6697 11.6627 10.9486 11.3111 11.311C10.9487 11.663 10.6698 12.0915 10.4946 12.5655C10.3453 12.9499 10.1676 13.5277 10.1192 14.5914C10.0667 15.7418 10.0554 16.0868 10.0554 19.0002C10.0554 21.9133 10.0667 22.2583 10.1192 23.409C10.1676 24.4727 10.3453 25.0502 10.4946 25.4346C10.6698 25.9086 10.9484 26.3371 11.3108 26.6891C11.6627 27.0515 12.0912 27.3304 12.5652 27.5052C12.9497 27.6548 13.5275 27.8325 14.5912 27.8809C15.7416 27.9334 16.0863 27.9444 18.9997 27.9444C21.9133 27.9444 22.2583 27.9334 23.4084 27.8809C24.4721 27.8325 25.0499 27.6548 25.4344 27.5052C26.3859 27.1382 27.1379 26.3861 27.5049 25.4346C27.6543 25.0502 27.832 24.4727 27.8807 23.409C27.9332 22.2583 27.9442 21.9133 27.9442 19.0002C27.9442 16.0868 27.9332 15.7418 27.8807 14.5914C27.8323 13.5277 27.6545 12.9499 27.5049 12.5655ZM18.9999 24.6023C15.9057 24.6023 13.3973 22.0942 13.3973 18.9999C13.3973 15.9056 15.9057 13.3975 18.9999 13.3975C22.0939 13.3975 24.6023 15.9056 24.6023 18.9999C24.6023 22.0942 22.0939 24.6023 18.9999 24.6023ZM24.8238 14.4853C24.1007 14.4853 23.5145 13.8991 23.5145 13.176C23.5145 12.453 24.1007 11.8668 24.8238 11.8668C25.5468 11.8668 26.1331 12.453 26.1331 13.176C26.1328 13.8991 25.5468 14.4853 24.8238 14.4853Z" fill="#95C5FF"/>
<path d="M19 0C8.50819 0 0 8.50819 0 19C0 29.4918 8.50819 38 19 38C29.4918 38 38 29.4918 38 19C38 8.50819 29.4918 0 19 0ZM29.8443 23.4981C29.7916 24.6595 29.6069 25.4524 29.3373 26.1465C28.7705 27.612 27.612 28.7705 26.1465 29.3373C25.4527 29.6069 24.6595 29.7913 23.4984 29.8443C22.3349 29.8974 21.9632 29.9102 19.0003 29.9102C16.037 29.9102 15.6657 29.8974 14.5019 29.8443C13.3408 29.7913 12.5476 29.6069 11.8538 29.3373C11.1256 29.0633 10.4663 28.6339 9.92125 28.0788C9.36635 27.534 8.93698 26.8744 8.66301 26.1465C8.39339 25.4527 8.20871 24.6595 8.15594 23.4984C8.10231 22.3346 8.08984 21.963 8.08984 19C8.08984 16.037 8.10231 15.6654 8.15565 14.5019C8.20842 13.3405 8.39281 12.5476 8.66243 11.8535C8.9364 11.1256 9.36606 10.466 9.92125 9.92125C10.466 9.36606 11.1256 8.93669 11.8535 8.66272C12.5476 8.3931 13.3405 8.20871 14.5019 8.15565C15.6654 8.1026 16.037 8.08984 19 8.08984C21.963 8.08984 22.3346 8.1026 23.4981 8.15594C24.6595 8.20871 25.4524 8.3931 26.1465 8.66243C26.8744 8.9364 27.534 9.36606 28.079 9.92125C28.6339 10.4663 29.0636 11.1256 29.3373 11.8535C29.6072 12.5476 29.7916 13.3405 29.8446 14.5019C29.8977 15.6654 29.9102 16.037 29.9102 19C29.9102 21.963 29.8977 22.3346 29.8443 23.4981Z" fill="#95C5FF"/>
</g>
<defs>
<clipPath id="clip0_38_503">
<rect width="38" height="38" fill="white"/>
</clipPath>
</defs>
</svg>
